<?xml version="1.0" encoding="UTF-8" standalone="no"?>
<!DOCTYPE svg PUBLIC "-//W3C//DTD SVG 1.1//EN"
 "http://www.w3.org/Graphics/SVG/1.1/DTD/svg11.dtd">
<!-- Generated by graphviz version 2.36.0 (20140111.2315)
 -->
<!-- Title: G Pages: 1 -->
<svg width="360pt" height="124pt"
 viewBox="0.00 0.00 360.40 124.00" xmlns="http://www.w3.org/2000/svg" xmlns:xlink="http://www.w3.org/1999/xlink">
<g id="graph0" class="graph" transform="scale(1 1) rotate(0) translate(4 120)">
<title>G</title>
<polygon fill="white" stroke="none" points="-4,4 -4,-120 356.4,-120 356.4,4 -4,4"/>
<!-- Red -->
<g id="node1" class="node"><title>Red</title>
<path fill="none" stroke="black" d="M102,-65.5C102,-65.5 193,-65.5 193,-65.5 199,-65.5 205,-71.5 205,-77.5 205,-77.5 205,-103.5 205,-103.5 205,-109.5 199,-115.5 193,-115.5 193,-115.5 102,-115.5 102,-115.5 96,-115.5 90,-109.5 90,-103.5 90,-103.5 90,-77.5 90,-77.5 90,-71.5 96,-65.5 102,-65.5"/>
<text text-anchor="middle" x="147.5" y="-101.1" font-family="Times,serif" font-size="13.00">Write a Statement </text>
<text text-anchor="middle" x="147.5" y="-87.1" font-family="Times,serif" font-size="13.00">you wish was true</text>
<text text-anchor="middle" x="147.5" y="-73.1" font-family="Times,serif" font-size="13.00">but is not</text>
</g>
<!-- Green -->
<g id="node2" class="node"><title>Green</title>
<path fill="none" stroke="black" d="M271.4,-72.5C271.4,-72.5 340.4,-72.5 340.4,-72.5 346.4,-72.5 352.4,-78.5 352.4,-84.5 352.4,-84.5 352.4,-96.5 352.4,-96.5 352.4,-102.5 346.4,-108.5 340.4,-108.5 340.4,-108.5 271.4,-108.5 271.4,-108.5 265.4,-108.5 259.4,-102.5 259.4,-96.5 259.4,-96.5 259.4,-84.5 259.4,-84.5 259.4,-78.5 265.4,-72.5 271.4,-72.5"/>
<text text-anchor="middle" x="305.9" y="-94.1" font-family="Times,serif" font-size="13.00">Add code</text>
<text text-anchor="middle" x="305.9" y="-80.1" font-family="Times,serif" font-size="13.00">to make it true</text>
</g>
<!-- Red&#45;&gt;Green -->
<g id="edge1" class="edge"><title>Red&#45;&gt;Green</title>
<path fill="none" stroke="black" d="M205.134,-90.5C219.441,-90.5 234.765,-90.5 249.035,-90.5"/>
<polygon fill="black" stroke="black" points="249.211,-94.0001 259.211,-90.5 249.211,-87.0001 249.211,-94.0001"/>
</g>
<!-- Refactor -->
<g id="node3" class="node"><title>Refactor</title>
<path fill="none" stroke="black" d="M200,-0.5C200,-0.5 239,-0.5 239,-0.5 245,-0.5 251,-6.5 251,-12.5 251,-12.5 251,-24.5 251,-24.5 251,-30.5 245,-36.5 239,-36.5 239,-36.5 200,-36.5 200,-36.5 194,-36.5 188,-30.5 188,-24.5 188,-24.5 188,-12.5 188,-12.5 188,-6.5 194,-0.5 200,-0.5"/>
<text text-anchor="middle" x="219.5" y="-15.1" font-family="Times,serif" font-size="13.00">Refactor</text>
</g>
<!-- Green&#45;&gt;Refactor -->
<g id="edge2" class="edge"><title>Green&#45;&gt;Refactor</title>
<path fill="none" stroke="black" d="M284.098,-72.3314C273.456,-63.4632 260.496,-52.6637 248.986,-43.0718"/>
<polygon fill="black" stroke="black" points="251.218,-40.3759 241.295,-36.6628 246.737,-45.7535 251.218,-40.3759"/>
</g>
<!-- Refactor&#45;&gt;Red -->
<g id="edge3" class="edge"><title>Refactor&#45;&gt;Red</title>
<path fill="none" stroke="black" d="M201.331,-36.6686C194.833,-43.1674 187.297,-50.7034 179.959,-58.0413"/>
<polygon fill="black" stroke="black" points="177.329,-55.7213 172.733,-65.2673 182.279,-60.6711 177.329,-55.7213"/>
</g>
<!-- Begin -->
<g id="node4" class="node"><title>Begin</title>
</g>
<!-- Begin&#45;&gt;Red -->
<g id="edge4" class="edge"><title>Begin&#45;&gt;Red</title>
<path fill="none" stroke="black" d="M7.05957,-90.5C17.4489,-90.5 48.9314,-90.5 79.4612,-90.5"/>
<polygon fill="black" stroke="black" points="79.7465,-94.0001 89.7465,-90.5 79.7464,-87.0001 79.7465,-94.0001"/>
</g>
</g>
</svg>
