<?xml version="1.0" encoding="UTF-8" standalone="no"?>
<!DOCTYPE svg PUBLIC "-//W3C//DTD SVG 1.1//EN"
 "http://www.w3.org/Graphics/SVG/1.1/DTD/svg11.dtd">
<!-- Generated by graphviz version 2.36.0 (20140111.2315)
 -->
<!-- Title: G Pages: 1 -->
<svg width="355pt" height="117pt"
 viewBox="0.00 0.00 355.40 117.00" xmlns="http://www.w3.org/2000/svg" xmlns:xlink="http://www.w3.org/1999/xlink">
<g id="graph0" class="graph" transform="scale(1 1) rotate(0) translate(4 113)">
<title>G</title>
<polygon fill="white" stroke="none" points="-4,4 -4,-113 351.4,-113 351.4,4 -4,4"/>
<!-- Red -->
<g id="node1" class="node"><title>Red</title>
<path fill="none" stroke="black" d="M112.5,-72.5C112.5,-72.5 182.5,-72.5 182.5,-72.5 188.5,-72.5 194.5,-78.5 194.5,-84.5 194.5,-84.5 194.5,-96.5 194.5,-96.5 194.5,-102.5 188.5,-108.5 182.5,-108.5 182.5,-108.5 112.5,-108.5 112.5,-108.5 106.5,-108.5 100.5,-102.5 100.5,-96.5 100.5,-96.5 100.5,-84.5 100.5,-84.5 100.5,-78.5 106.5,-72.5 112.5,-72.5"/>
<text text-anchor="middle" x="147.5" y="-94.1" font-family="Times,serif" font-size="13.00">Write a failing</text>
<text text-anchor="middle" x="147.5" y="-80.1" font-family="Times,serif" font-size="13.00">test</text>
</g>
<!-- Green -->
<g id="node2" class="node"><title>Green</title>
<path fill="none" stroke="black" d="M276.4,-72.5C276.4,-72.5 335.4,-72.5 335.4,-72.5 341.4,-72.5 347.4,-78.5 347.4,-84.5 347.4,-84.5 347.4,-96.5 347.4,-96.5 347.4,-102.5 341.4,-108.5 335.4,-108.5 335.4,-108.5 276.4,-108.5 276.4,-108.5 270.4,-108.5 264.4,-102.5 264.4,-96.5 264.4,-96.5 264.4,-84.5 264.4,-84.5 264.4,-78.5 270.4,-72.5 276.4,-72.5"/>
<text text-anchor="middle" x="305.9" y="-87.1" font-family="Times,serif" font-size="13.00">Make it pass</text>
</g>
<!-- Red&#45;&gt;Green -->
<g id="edge1" class="edge"><title>Red&#45;&gt;Green</title>
<path fill="none" stroke="black" d="M194.596,-90.5C213.381,-90.5 235.066,-90.5 254.277,-90.5"/>
<polygon fill="black" stroke="black" points="254.364,-94.0001 264.364,-90.5 254.364,-87.0001 254.364,-94.0001"/>
</g>
<!-- Refactor -->
<g id="node3" class="node"><title>Refactor</title>
<path fill="none" stroke="black" d="M200,-0.5C200,-0.5 239,-0.5 239,-0.5 245,-0.5 251,-6.5 251,-12.5 251,-12.5 251,-24.5 251,-24.5 251,-30.5 245,-36.5 239,-36.5 239,-36.5 200,-36.5 200,-36.5 194,-36.5 188,-30.5 188,-24.5 188,-24.5 188,-12.5 188,-12.5 188,-6.5 194,-0.5 200,-0.5"/>
<text text-anchor="middle" x="219.5" y="-15.1" font-family="Times,serif" font-size="13.00">Refactor</text>
</g>
<!-- Green&#45;&gt;Refactor -->
<g id="edge2" class="edge"><title>Green&#45;&gt;Refactor</title>
<path fill="none" stroke="black" d="M284.098,-72.3314C273.456,-63.4632 260.496,-52.6637 248.986,-43.0718"/>
<polygon fill="black" stroke="black" points="251.218,-40.3759 241.295,-36.6628 246.737,-45.7535 251.218,-40.3759"/>
</g>
<!-- Refactor&#45;&gt;Red -->
<g id="edge3" class="edge"><title>Refactor&#45;&gt;Red</title>
<path fill="none" stroke="black" d="M201.331,-36.6686C192.785,-45.2152 182.444,-55.5557 173.12,-64.8802"/>
<polygon fill="black" stroke="black" points="170.509,-62.5408 165.913,-72.0867 175.459,-67.4905 170.509,-62.5408"/>
</g>
<!-- Begin -->
<g id="node4" class="node"><title>Begin</title>
</g>
<!-- Begin&#45;&gt;Red -->
<g id="edge4" class="edge"><title>Begin&#45;&gt;Red</title>
<path fill="none" stroke="black" d="M7.05957,-90.5C18.6775,-90.5 56.6722,-90.5 90.2157,-90.5"/>
<polygon fill="black" stroke="black" points="90.4487,-94.0001 100.449,-90.5 90.4486,-87.0001 90.4487,-94.0001"/>
</g>
</g>
</svg>
