<?xml version="1.0" encoding="UTF-8" standalone="no"?>
<!DOCTYPE svg PUBLIC "-//W3C//DTD SVG 1.1//EN"
 "http://www.w3.org/Graphics/SVG/1.1/DTD/svg11.dtd">
<!-- Generated by graphviz version 2.36.0 (20140111.2315)
 -->
<!-- Title: G Pages: 1 -->
<svg width="636pt" height="162pt"
 viewBox="0.00 0.00 635.70 161.74" xmlns="http://www.w3.org/2000/svg" xmlns:xlink="http://www.w3.org/1999/xlink">
<g id="graph0" class="graph" transform="scale(1 1) rotate(0) translate(4 157.736)">
<title>G</title>
<polygon fill="white" stroke="none" points="-4,4 -4,-157.736 631.697,-157.736 631.697,4 -4,4"/>
<!-- Sender -->
<g id="node1" class="node"><title>Sender</title>
<ellipse fill="none" stroke="black" cx="18" cy="-106.569" rx="18" ry="18"/>
</g>
<!-- square -->
<g id="node3" class="node"><title>square</title>
<polygon fill="none" stroke="black" points="262.8,-142.569 188.8,-106.569 262.8,-70.5686 336.8,-106.569 262.8,-142.569"/>
<polyline fill="none" stroke="black" points="199.591,-111.818 199.591,-101.319 "/>
<polyline fill="none" stroke="black" points="252.009,-75.8182 273.591,-75.8182 "/>
<polyline fill="none" stroke="black" points="326.009,-101.319 326.009,-111.818 "/>
<polyline fill="none" stroke="black" points="273.591,-137.319 252.009,-137.319 "/>
<text text-anchor="middle" x="262.8" y="-110.169" font-family="Times,serif" font-size="13.00">Recipient</text>
<text text-anchor="middle" x="262.8" y="-96.1686" font-family="Times,serif" font-size="13.00">(Interface)</text>
</g>
<!-- Sender&#45;&gt;square -->
<g id="edge1" class="edge"><title>Sender&#45;&gt;square</title>
<path fill="none" stroke="black" d="M36.0007,-106.569C65.7616,-106.569 127.041,-106.569 178.406,-106.569"/>
<polygon fill="black" stroke="black" points="178.535,-110.069 188.535,-106.569 178.535,-103.069 178.535,-110.069"/>
<text text-anchor="middle" x="94.0007" y="-109.569" font-family="Times,serif" font-size="10.00">Recipient::DoSomething()...</text>
</g>
<!-- Recipient -->
<g id="node2" class="node"><title>Recipient</title>
<ellipse fill="none" stroke="black" cx="588.099" cy="-114.138" rx="39.6962" ry="39.6962"/>
<text text-anchor="middle" x="588.099" y="-117.138" font-family="Times,serif" font-size="10.00">Concrete</text>
<text text-anchor="middle" x="588.099" y="-106.138" font-family="Times,serif" font-size="10.00">Recipient</text>
</g>
<!-- square&#45;&gt;Recipient -->
<g id="edge2" class="edge"><title>square&#45;&gt;Recipient</title>
<path fill="none" stroke="black" d="M333.786,-108.22C395.607,-109.659 483.658,-111.707 538.268,-112.978"/>
<polygon fill="black" stroke="black" points="538.315,-116.48 548.394,-113.214 538.478,-109.482 538.315,-116.48"/>
<text text-anchor="middle" x="410.286" y="-111.22" font-family="Times,serif" font-size="10.00">...ConcreteRecipient::DoSomething()</text>
</g>
<!-- Alarm -->
<g id="node4" class="node"><title>Alarm</title>
<ellipse fill="none" stroke="black" cx="18" cy="-34.5686" rx="18" ry="18"/>
</g>
<!-- Lift -->
<g id="node6" class="node"><title>Lift</title>
<polygon fill="none" stroke="black" points="262.8,-64.5686 204.8,-34.5686 262.8,-4.56863 320.8,-34.5686 262.8,-64.5686"/>
<polyline fill="none" stroke="black" points="215.459,-40.0817 215.459,-29.0556 "/>
<polyline fill="none" stroke="black" points="252.141,-10.0817 273.459,-10.0817 "/>
<polyline fill="none" stroke="black" points="310.141,-29.0556 310.141,-40.0817 "/>
<polyline fill="none" stroke="black" points="273.459,-59.0556 252.141,-59.0556 "/>
<text text-anchor="middle" x="262.8" y="-37.5686" font-family="Times,serif" font-size="10.00">Lift</text>
<text text-anchor="middle" x="262.8" y="-26.5686" font-family="Times,serif" font-size="10.00">(Interface)</text>
</g>
<!-- Alarm&#45;&gt;Lift -->
<g id="edge3" class="edge"><title>Alarm&#45;&gt;Lift</title>
<path fill="none" stroke="black" d="M36.0007,-34.5686C68.9355,-34.5686 140.47,-34.5686 194.452,-34.5686"/>
<polygon fill="black" stroke="black" points="194.656,-38.0687 204.655,-34.5686 194.655,-31.0687 194.656,-38.0687"/>
<text text-anchor="middle" x="91.5007" y="-37.5686" font-family="Times,serif" font-size="10.00">Lift::GoToBottomFloor()...</text>
</g>
<!-- AutoLift -->
<g id="node5" class="node"><title>AutoLift</title>
<ellipse fill="none" stroke="black" cx="588.099" cy="-31.1991" rx="31.3996" ry="31.3996"/>
<text text-anchor="middle" x="588.099" y="-28.6991" font-family="Times,serif" font-size="10.00">AutoLift</text>
</g>
<!-- Lift&#45;&gt;AutoLift -->
<g id="edge4" class="edge"><title>Lift&#45;&gt;AutoLift</title>
<path fill="none" stroke="black" d="M319.835,-33.9779C384.677,-33.3062 488.972,-32.2259 546.557,-31.6294"/>
<polygon fill="black" stroke="black" points="546.782,-35.1274 556.745,-31.5239 546.709,-28.1278 546.782,-35.1274"/>
<text text-anchor="middle" x="385.835" y="-36.9779" font-family="Times,serif" font-size="10.00">...AutoLift::GoToBottomFloor()</text>
</g>
</g>
</svg>
