<?xml version="1.0" encoding="UTF-8" standalone="no"?>
<!DOCTYPE svg PUBLIC "-//W3C//DTD SVG 1.1//EN"
 "http://www.w3.org/Graphics/SVG/1.1/DTD/svg11.dtd">
<!-- Generated by graphviz version 2.36.0 (20140111.2315)
 -->
<!-- Title: G Pages: 1 -->
<svg width="142pt" height="238pt"
 viewBox="0.00 0.00 142.00 238.00" xmlns="http://www.w3.org/2000/svg" xmlns:xlink="http://www.w3.org/1999/xlink">
<g id="graph0" class="graph" transform="scale(1 1) rotate(0) translate(4 234)">
<title>G</title>
<polygon fill="white" stroke="none" points="-4,4 -4,-234 138,-234 138,4 -4,4"/>
<!-- Red -->
<g id="node1" class="node"><title>Red</title>
<path fill="none" stroke="black" d="M12,-149C12,-149 122,-149 122,-149 128,-149 134,-155 134,-161 134,-161 134,-173 134,-173 134,-179 128,-185 122,-185 122,-185 12,-185 12,-185 6,-185 0,-179 0,-173 0,-173 0,-161 0,-161 0,-155 6,-149 12,-149"/>
<text text-anchor="start" x="8" y="-170.2" font-family="Times,serif" font-size="11.00">Write an </text>
<text text-anchor="start" x="60" y="-170.2" font-family="Times,serif" font-weight="bold" font-size="11.00">unfulfilled</text>
<text text-anchor="start" x="35.5" y="-159.2" font-family="Times,serif" font-size="11.00"> Statement</text>
</g>
<!-- Green -->
<g id="node2" class="node"><title>Green</title>
<path fill="none" stroke="black" d="M19,-75C19,-75 57,-75 57,-75 63,-75 69,-81 69,-87 69,-87 69,-99 69,-99 69,-105 63,-111 57,-111 57,-111 19,-111 19,-111 13,-111 7,-105 7,-99 7,-99 7,-87 7,-87 7,-81 13,-75 19,-75"/>
<text text-anchor="middle" x="38" y="-90.2" font-family="Times,serif" font-size="11.00">Fulfill it</text>
</g>
<!-- Red&#45;&gt;Green -->
<g id="edge1" class="edge"><title>Red&#45;&gt;Green</title>
<path fill="none" stroke="black" d="M60.1274,-148.937C56.7461,-140.542 52.5913,-130.227 48.7985,-120.81"/>
<polygon fill="black" stroke="black" points="52.0074,-119.409 45.0247,-111.441 45.5143,-122.024 52.0074,-119.409"/>
</g>
<!-- Refactor -->
<g id="node3" class="node"><title>Refactor</title>
<path fill="none" stroke="black" d="M46.5,-1C46.5,-1 87.5,-1 87.5,-1 93.5,-1 99.5,-7 99.5,-13 99.5,-13 99.5,-25 99.5,-25 99.5,-31 93.5,-37 87.5,-37 87.5,-37 46.5,-37 46.5,-37 40.5,-37 34.5,-31 34.5,-25 34.5,-25 34.5,-13 34.5,-13 34.5,-7 40.5,-1 46.5,-1"/>
<text text-anchor="middle" x="67" y="-16.2" font-family="Times,serif" font-size="11.00">Refactor</text>
</g>
<!-- Green&#45;&gt;Refactor -->
<g id="edge2" class="edge"><title>Green&#45;&gt;Refactor</title>
<path fill="none" stroke="black" d="M44.8726,-74.937C48.2539,-66.5421 52.4087,-56.2266 56.2015,-46.81"/>
<polygon fill="black" stroke="black" points="59.4857,-48.0242 59.9753,-37.4407 52.9926,-45.4089 59.4857,-48.0242"/>
</g>
<!-- Refactor&#45;&gt;Red -->
<g id="edge3" class="edge"><title>Refactor&#45;&gt;Red</title>
<path fill="none" stroke="black" d="M71.0593,-37.3972C73.3058,-47.9249 75.8668,-61.6572 77,-74 78.5441,-90.8182 78.5441,-95.1818 77,-112 76.1944,-120.775 74.667,-130.252 73.0442,-138.781"/>
<polygon fill="black" stroke="black" points="69.6095,-138.108 71.0593,-148.603 76.4708,-139.494 69.6095,-138.108"/>
</g>
<!-- Begin -->
<g id="node4" class="node"><title>Begin</title>
</g>
<!-- Begin&#45;&gt;Red -->
<g id="edge4" class="edge"><title>Begin&#45;&gt;Red</title>
<path fill="none" stroke="black" d="M67,-222.251C67,-217.229 67,-206.083 67,-195.192"/>
<polygon fill="black" stroke="black" points="70.5001,-195.037 67,-185.037 63.5001,-195.037 70.5001,-195.037"/>
</g>
</g>
</svg>
