<?xml version="1.0" encoding="UTF-8" standalone="no"?>
<!DOCTYPE svg PUBLIC "-//W3C//DTD SVG 1.1//EN"
 "http://www.w3.org/Graphics/SVG/1.1/DTD/svg11.dtd">
<!-- Generated by graphviz version 2.36.0 (20140111.2315)
 -->
<!-- Title: G Pages: 1 -->
<svg width="423pt" height="268pt"
 viewBox="0.00 0.00 423.00 268.00" xmlns="http://www.w3.org/2000/svg" xmlns:xlink="http://www.w3.org/1999/xlink">
<g id="graph0" class="graph" transform="scale(1 1) rotate(0) translate(4 264)">
<title>G</title>
<polygon fill="white" stroke="none" points="-4,4 -4,-264 419,-264 419,4 -4,4"/>
<!-- Sender -->
<g id="node1" class="node"><title>Sender</title>
<ellipse fill="none" stroke="black" cx="187" cy="-242" rx="18" ry="18"/>
</g>
<!-- square -->
<g id="node2" class="node"><title>square</title>
<polygon fill="none" stroke="black" points="187,-188 117,-158 187,-128 257,-158 187,-188"/>
<polyline fill="none" stroke="black" points="128.03,-162.727 128.03,-153.273 "/>
<polyline fill="none" stroke="black" points="175.97,-132.727 198.03,-132.727 "/>
<polyline fill="none" stroke="black" points="245.97,-153.273 245.97,-162.727 "/>
<polyline fill="none" stroke="black" points="198.03,-183.273 175.97,-183.273 "/>
<text text-anchor="middle" x="187" y="-161" font-family="Times,serif" font-size="10.00">Recipient</text>
<text text-anchor="middle" x="187" y="-150" font-family="Times,serif" font-size="10.00">(Interface)</text>
</g>
<!-- Sender&#45;&gt;square -->
<g id="edge1" class="edge"><title>Sender&#45;&gt;square</title>
<path fill="none" stroke="black" d="M187,-223.61C187,-216.244 187,-207.335 187,-198.518"/>
<polygon fill="black" stroke="black" points="190.5,-198.307 187,-188.307 183.5,-198.307 190.5,-198.307"/>
<text text-anchor="middle" x="116.5" y="-215.61" font-family="Times,serif" font-size="10.00">Recipient::DoSomething()...</text>
</g>
<!-- Recipient -->
<g id="node3" class="node"><title>Recipient</title>
<ellipse fill="none" stroke="black" cx="187" cy="-46" rx="45.4433" ry="45.9239"/>
<text text-anchor="middle" x="187" y="-49" font-family="Times,serif" font-size="10.00">Concrete</text>
<text text-anchor="middle" x="187" y="-38" font-family="Times,serif" font-size="10.00">Recipient</text>
</g>
<!-- square&#45;&gt;Recipient -->
<g id="edge2" class="edge"><title>square&#45;&gt;Recipient</title>
<path fill="none" stroke="black" d="M187,-127.811C187,-119.942 187,-111.162 187,-102.37"/>
<polygon fill="black" stroke="black" points="190.5,-102.096 187,-92.0958 183.5,-102.096 190.5,-102.096"/>
<text text-anchor="middle" x="93.5" y="-119.811" font-family="Times,serif" font-size="10.00">...ConcreteRecipient::DoSomething()</text>
</g>
<!-- Alarm -->
<g id="node4" class="node"><title>Alarm</title>
<ellipse fill="none" stroke="black" cx="345" cy="-242" rx="18" ry="18"/>
</g>
<!-- Lift -->
<g id="node5" class="node"><title>Lift</title>
<polygon fill="none" stroke="black" points="345,-188 275,-158 345,-128 415,-158 345,-188"/>
<polyline fill="none" stroke="black" points="286.03,-162.727 286.03,-153.273 "/>
<polyline fill="none" stroke="black" points="333.97,-132.727 356.03,-132.727 "/>
<polyline fill="none" stroke="black" points="403.97,-153.273 403.97,-162.727 "/>
<polyline fill="none" stroke="black" points="356.03,-183.273 333.97,-183.273 "/>
<text text-anchor="middle" x="345" y="-161" font-family="Times,serif" font-size="10.00">Lift</text>
<text text-anchor="middle" x="345" y="-150" font-family="Times,serif" font-size="10.00">(Interface)</text>
</g>
<!-- Alarm&#45;&gt;Lift -->
<g id="edge3" class="edge"><title>Alarm&#45;&gt;Lift</title>
<path fill="none" stroke="black" d="M345,-223.61C345,-216.244 345,-207.335 345,-198.518"/>
<polygon fill="black" stroke="black" points="348.5,-198.307 345,-188.307 341.5,-198.307 348.5,-198.307"/>
<text text-anchor="middle" x="280" y="-215.61" font-family="Times,serif" font-size="10.00">Lift::GoToBottomFloor()...</text>
</g>
<!-- AutoLift -->
<g id="node6" class="node"><title>AutoLift</title>
<ellipse fill="none" stroke="black" cx="345" cy="-46" rx="34.214" ry="34.2855"/>
<text text-anchor="middle" x="345" y="-43.5" font-family="Times,serif" font-size="10.00">AutoLift</text>
</g>
<!-- Lift&#45;&gt;AutoLift -->
<g id="edge4" class="edge"><title>Lift&#45;&gt;AutoLift</title>
<path fill="none" stroke="black" d="M345,-127.811C345,-116.374 345,-103.011 345,-90.4835"/>
<polygon fill="black" stroke="black" points="348.5,-90.2169 345,-80.2169 341.5,-90.217 348.5,-90.2169"/>
<text text-anchor="middle" x="268" y="-119.811" font-family="Times,serif" font-size="10.00">...AutoLift::GoToBottomFloor()</text>
</g>
</g>
</svg>
