<?xml version="1.0" encoding="UTF-8" standalone="no"?>
<!DOCTYPE svg PUBLIC "-//W3C//DTD SVG 1.1//EN"
 "http://www.w3.org/Graphics/SVG/1.1/DTD/svg11.dtd">
<!-- Generated by graphviz version 2.36.0 (20140111.2315)
 -->
<!-- Title: G Pages: 1 -->
<svg width="638pt" height="185pt"
 viewBox="0.00 0.00 637.64 185.08" xmlns="http://www.w3.org/2000/svg" xmlns:xlink="http://www.w3.org/1999/xlink">
<g id="graph0" class="graph" transform="scale(1 1) rotate(0) translate(4 181.084)">
<title>G</title>
<polygon fill="white" stroke="none" points="-4,4 -4,-181.084 633.64,-181.084 633.64,4 -4,4"/>
<!-- Sender -->
<g id="node1" class="node"><title>Sender</title>
<ellipse fill="none" stroke="black" cx="18" cy="-129.563" rx="18" ry="18"/>
</g>
<!-- square -->
<g id="node3" class="node"><title>square</title>
<polygon fill="none" stroke="black" points="270.055,-161.462 193.055,-129.462 270.055,-97.4621 347.055,-129.462 270.055,-161.462"/>
<polyline fill="none" stroke="black" points="204.136,-134.067 204.136,-124.857 "/>
<polyline fill="none" stroke="black" points="258.973,-102.067 281.136,-102.067 "/>
<polyline fill="none" stroke="black" points="335.973,-124.857 335.973,-134.067 "/>
<polyline fill="none" stroke="black" points="281.136,-156.857 258.973,-156.857 "/>
<text text-anchor="middle" x="270.055" y="-132.662" font-family="Times,serif" font-size="11.00">Recipient</text>
<text text-anchor="middle" x="270.055" y="-120.662" font-family="Times,serif" font-size="11.00">(Interface)</text>
</g>
<!-- Sender&#45;&gt;square -->
<g id="edge1" class="edge"><title>Sender&#45;&gt;square</title>
<path fill="none" stroke="black" d="M36.1271,-129.556C66.5618,-129.543 129.814,-129.518 182.88,-129.497"/>
<polygon fill="black" stroke="black" points="183.003,-132.997 193.001,-129.493 183,-125.997 183.003,-132.997"/>
<text text-anchor="middle" x="106.627" y="-132.556" font-family="Times,serif" font-size="10.00">Recipient::DoSomething()...</text>
</g>
<!-- Recipient -->
<g id="node2" class="node"><title>Recipient</title>
<ellipse fill="none" stroke="black" cx="583.678" cy="-131.122" rx="45.9239" ry="45.9239"/>
<text text-anchor="middle" x="583.678" y="-134.122" font-family="Times,serif" font-size="10.00">Concrete</text>
<text text-anchor="middle" x="583.678" y="-123.122" font-family="Times,serif" font-size="10.00">Recipient</text>
</g>
<!-- square&#45;&gt;Recipient -->
<g id="edge2" class="edge"><title>square&#45;&gt;Recipient</title>
<path fill="none" stroke="black" d="M346.374,-129.866C402.182,-130.161 476.651,-130.555 527.176,-130.823"/>
<polygon fill="black" stroke="black" points="527.245,-134.323 537.264,-130.876 527.282,-127.323 527.245,-134.323"/>
<text text-anchor="middle" x="439.874" y="-132.866" font-family="Times,serif" font-size="10.00">...ConcreteRecipient::DoSomething()</text>
</g>
<!-- Alarm -->
<g id="node4" class="node"><title>Alarm</title>
<ellipse fill="none" stroke="black" cx="18" cy="-32.6997" rx="18" ry="18"/>
</g>
<!-- Lift -->
<g id="node6" class="node"><title>Lift</title>
<polygon fill="none" stroke="black" points="270.171,-62.7368 200.171,-32.7368 270.171,-2.73683 340.171,-32.7368 270.171,-62.7368"/>
<polyline fill="none" stroke="black" points="211.2,-37.4639 211.2,-28.0098 "/>
<polyline fill="none" stroke="black" points="259.141,-7.46386 281.2,-7.46386 "/>
<polyline fill="none" stroke="black" points="329.141,-28.0098 329.141,-37.4639 "/>
<polyline fill="none" stroke="black" points="281.2,-58.0098 259.141,-58.0098 "/>
<text text-anchor="middle" x="270.171" y="-35.7368" font-family="Times,serif" font-size="10.00">Lift</text>
<text text-anchor="middle" x="270.171" y="-24.7368" font-family="Times,serif" font-size="10.00">(Interface)</text>
</g>
<!-- Alarm&#45;&gt;Lift -->
<g id="edge3" class="edge"><title>Alarm&#45;&gt;Lift</title>
<path fill="none" stroke="black" d="M36.1355,-32.7024C67.9764,-32.7071 135.721,-32.717 190.17,-32.7251"/>
<polygon fill="black" stroke="black" points="190.17,-36.225 200.17,-32.7265 190.171,-29.225 190.17,-36.225"/>
<text text-anchor="middle" x="101.135" y="-35.7024" font-family="Times,serif" font-size="10.00">Lift::GoToBottomFloor()...</text>
</g>
<!-- AutoLift -->
<g id="node5" class="node"><title>AutoLift</title>
<ellipse fill="none" stroke="black" cx="583.832" cy="-34.1425" rx="34.2855" ry="34.2855"/>
<text text-anchor="middle" x="583.832" y="-31.6425" font-family="Times,serif" font-size="10.00">AutoLift</text>
</g>
<!-- Lift&#45;&gt;AutoLift -->
<g id="edge4" class="edge"><title>Lift&#45;&gt;AutoLift</title>
<path fill="none" stroke="black" d="M339.782,-33.0488C400.737,-33.3219 487.466,-33.7106 539.444,-33.9435"/>
<polygon fill="black" stroke="black" points="539.656,-37.4444 549.672,-33.9894 539.688,-30.4445 539.656,-37.4444"/>
<text text-anchor="middle" x="416.782" y="-36.0488" font-family="Times,serif" font-size="10.00">...AutoLift::GoToBottomFloor()</text>
</g>
</g>
</svg>
