<?xml version="1.0" encoding="UTF-8" standalone="no"?>
<!DOCTYPE svg PUBLIC "-//W3C//DTD SVG 1.1//EN"
 "http://www.w3.org/Graphics/SVG/1.1/DTD/svg11.dtd">
<!-- Generated by graphviz version 2.36.0 (20140111.2315)
 -->
<!-- Title: G Pages: 1 -->
<svg width="340pt" height="487pt"
 viewBox="0.00 0.00 340.01 486.83" xmlns="http://www.w3.org/2000/svg" xmlns:xlink="http://www.w3.org/1999/xlink">
<g id="graph0" class="graph" transform="scale(1 1) rotate(0) translate(4 482.827)">
<title>G</title>
<polygon fill="white" stroke="none" points="-4,4 -4,-482.827 336.015,-482.827 336.015,4 -4,4"/>
<!-- o1 -->
<g id="node1" class="node"><title>o1</title>
<ellipse fill="none" stroke="black" cx="190.294" cy="-386.566" rx="18" ry="18"/>
</g>
<!-- o3 -->
<g id="node2" class="node"><title>o3</title>
<ellipse fill="none" stroke="black" cx="174.259" cy="-305.128" rx="18" ry="18"/>
</g>
<!-- o1&#45;&gt;o3 -->
<g id="edge1" class="edge"><title>o1&#45;&gt;o3</title>
<path fill="none" stroke="black" d="M186.815,-368.895C184.749,-358.403 182.083,-344.865 179.74,-332.965"/>
<polygon fill="black" stroke="black" points="183.153,-332.181 177.787,-323.045 176.285,-333.533 183.153,-332.181"/>
</g>
<!-- o2 -->
<g id="node3" class="node"><title>o2</title>
<ellipse fill="none" stroke="black" cx="95.5503" cy="-334.147" rx="18" ry="18"/>
</g>
<!-- o3&#45;&gt;o2 -->
<g id="edge3" class="edge"><title>o3&#45;&gt;o2</title>
<path fill="none" stroke="black" d="M157.18,-311.424C146.969,-315.189 133.775,-320.054 122.216,-324.315"/>
<polygon fill="black" stroke="black" points="120.767,-321.119 112.596,-327.862 123.189,-327.687 120.767,-321.119"/>
</g>
<!-- o7 -->
<g id="node5" class="node"><title>o7</title>
<ellipse fill="none" stroke="black" cx="180.686" cy="-218.731" rx="18" ry="18"/>
</g>
<!-- o3&#45;&gt;o7 -->
<g id="edge4" class="edge"><title>o3&#45;&gt;o7</title>
<path fill="none" stroke="black" d="M175.622,-286.805C176.48,-275.273 177.605,-260.154 178.576,-247.093"/>
<polygon fill="black" stroke="black" points="182.096,-246.963 179.347,-236.731 175.115,-246.444 182.096,-246.963"/>
</g>
<!-- o13 -->
<g id="node4" class="node"><title>o13</title>
</g>
<!-- o2&#45;&gt;o13 -->
<g id="edge2" class="edge"><title>o2&#45;&gt;o13</title>
<path fill="none" stroke="black" stroke-dasharray="5,2" d="M79.6512,-342.876C72.8854,-346.591 64.7633,-351.051 56.9464,-355.343"/>
<polygon fill="black" stroke="black" points="55.091,-352.368 48.0099,-360.249 58.46,-358.504 55.091,-352.368"/>
</g>
<!-- o6 -->
<g id="node8" class="node"><title>o6</title>
<ellipse fill="none" stroke="black" cx="266.136" cy="-200.47" rx="18" ry="18"/>
</g>
<!-- o7&#45;&gt;o6 -->
<g id="edge8" class="edge"><title>o7&#45;&gt;o6</title>
<path fill="none" stroke="black" d="M198.392,-214.947C209.964,-212.475 225.316,-209.194 238.48,-206.381"/>
<polygon fill="black" stroke="black" points="239.406,-209.762 248.454,-204.249 237.943,-202.916 239.406,-209.762"/>
</g>
<!-- o8 -->
<g id="node9" class="node"><title>o8</title>
<ellipse fill="none" stroke="black" cx="104.989" cy="-163.89" rx="18" ry="18"/>
</g>
<!-- o7&#45;&gt;o8 -->
<g id="edge9" class="edge"><title>o7&#45;&gt;o8</title>
<path fill="none" stroke="black" d="M166.091,-208.157C155.27,-200.317 140.309,-189.478 127.899,-180.488"/>
<polygon fill="black" stroke="black" points="129.95,-177.651 119.798,-174.618 125.843,-183.32 129.95,-177.651"/>
</g>
<!-- o11 -->
<g id="node10" class="node"><title>o11</title>
<ellipse fill="none" stroke="black" cx="189.976" cy="-135.569" rx="18" ry="18"/>
</g>
<!-- o7&#45;&gt;o11 -->
<g id="edge10" class="edge"><title>o7&#45;&gt;o11</title>
<path fill="none" stroke="black" d="M182.702,-200.686C183.907,-189.898 185.465,-175.957 186.829,-163.744"/>
<polygon fill="black" stroke="black" points="190.333,-163.906 187.965,-153.579 183.376,-163.129 190.333,-163.906"/>
</g>
<!-- o4 -->
<g id="node6" class="node"><title>o4</title>
<ellipse fill="none" stroke="black" cx="257.903" cy="-314.565" rx="18" ry="18"/>
</g>
<!-- o4&#45;&gt;o3 -->
<g id="edge5" class="edge"><title>o4&#45;&gt;o3</title>
<path fill="none" stroke="black" d="M239.753,-312.517C228.902,-311.293 214.88,-309.711 202.597,-308.325"/>
<polygon fill="black" stroke="black" points="202.702,-304.815 192.373,-307.171 201.917,-311.771 202.702,-304.815"/>
</g>
<!-- o5 -->
<g id="node7" class="node"><title>o5</title>
<ellipse fill="none" stroke="black" cx="314.015" cy="-260.525" rx="18" ry="18"/>
</g>
<!-- o5&#45;&gt;o4 -->
<g id="edge6" class="edge"><title>o5&#45;&gt;o4</title>
<path fill="none" stroke="black" d="M301.001,-273.059C294.439,-279.378 286.318,-287.199 278.901,-294.342"/>
<polygon fill="black" stroke="black" points="276.011,-292.266 271.236,-301.724 280.867,-297.308 276.011,-292.266"/>
</g>
<!-- o6&#45;&gt;o5 -->
<g id="edge7" class="edge"><title>o6&#45;&gt;o5</title>
<path fill="none" stroke="black" d="M277.483,-214.702C283.147,-221.808 290.127,-230.562 296.463,-238.509"/>
<polygon fill="black" stroke="black" points="293.779,-240.758 302.75,-246.395 299.253,-236.394 293.779,-240.758"/>
</g>
<!-- o9 -->
<g id="node11" class="node"><title>o9</title>
<ellipse fill="none" stroke="black" cx="125.739" cy="-87.834" rx="18" ry="18"/>
</g>
<!-- o8&#45;&gt;o9 -->
<g id="edge11" class="edge"><title>o8&#45;&gt;o9</title>
<path fill="none" stroke="black" d="M109.802,-146.25C112.316,-137.035 115.449,-125.552 118.27,-115.211"/>
<polygon fill="black" stroke="black" points="121.697,-115.947 120.952,-105.378 114.944,-114.104 121.697,-115.947"/>
</g>
<!-- o11&#45;&gt;o9 -->
<g id="edge14" class="edge"><title>o11&#45;&gt;o9</title>
<path fill="none" stroke="black" d="M175.4,-124.738C167.433,-118.817 157.389,-111.354 148.422,-104.69"/>
<polygon fill="black" stroke="black" points="150.372,-101.778 140.258,-98.6231 146.196,-107.397 150.372,-101.778"/>
</g>
<!-- o10 -->
<g id="node13" class="node"><title>o10</title>
<ellipse fill="none" stroke="black" cx="269.839" cy="-121.764" rx="18" ry="18"/>
</g>
<!-- o11&#45;&gt;o10 -->
<g id="edge15" class="edge"><title>o11&#45;&gt;o10</title>
<path fill="none" stroke="black" d="M208.098,-132.437C218.073,-130.713 230.666,-128.536 241.874,-126.598"/>
<polygon fill="black" stroke="black" points="242.806,-129.989 252.064,-124.837 241.614,-123.091 242.806,-129.989"/>
</g>
<!-- o14 -->
<g id="node12" class="node"><title>o14</title>
</g>
<!-- o9&#45;&gt;o14 -->
<g id="edge12" class="edge"><title>o9&#45;&gt;o14</title>
<path fill="none" stroke="black" stroke-dasharray="5,2" d="M118.511,-71.2843C115.044,-63.3462 110.804,-53.6374 106.898,-44.6922"/>
<polygon fill="black" stroke="black" points="110.052,-43.1688 102.842,-35.4054 103.637,-45.9704 110.052,-43.1688"/>
</g>
<!-- o10&#45;&gt;o6 -->
<g id="edge13" class="edge"><title>o10&#45;&gt;o6</title>
<path fill="none" stroke="black" d="M268.98,-140.019C268.532,-149.555 267.972,-161.438 267.469,-172.139"/>
<polygon fill="black" stroke="black" points="263.964,-172.161 266.99,-182.315 270.956,-172.49 263.964,-172.161"/>
</g>
<!-- o12 -->
<g id="node14" class="node"><title>o12</title>
</g>
<!-- o12&#45;&gt;o1 -->
<g id="edge16" class="edge"><title>o12&#45;&gt;o1</title>
<path fill="none" stroke="black" stroke-dasharray="5,2" d="M207.922,-442.851C205.168,-434.058 201.796,-423.291 198.742,-413.538"/>
<polygon fill="black" stroke="black" points="202.041,-412.363 195.712,-403.866 195.361,-414.455 202.041,-412.363"/>
</g>
</g>
</svg>
