<?xml version="1.0" encoding="UTF-8" standalone="no"?>
<!DOCTYPE svg PUBLIC "-//W3C//DTD SVG 1.1//EN"
 "http://www.w3.org/Graphics/SVG/1.1/DTD/svg11.dtd">
<!-- Generated by graphviz version 2.36.0 (20140111.2315)
 -->
<!-- Title: G Pages: 1 -->
<svg width="240pt" height="620pt"
 viewBox="0.00 0.00 240.00 620.00" xmlns="http://www.w3.org/2000/svg" xmlns:xlink="http://www.w3.org/1999/xlink">
<g id="graph0" class="graph" transform="scale(1 1) rotate(0) translate(4 616)">
<title>G</title>
<polygon fill="white" stroke="none" points="-4,4 -4,-616 236,-616 236,4 -4,4"/>
<!-- o1 -->
<g id="node1" class="node"><title>o1</title>
<ellipse fill="none" stroke="black" cx="128" cy="-522" rx="18" ry="18"/>
</g>
<!-- o3 -->
<g id="node2" class="node"><title>o3</title>
<ellipse fill="none" stroke="black" cx="128" cy="-450" rx="18" ry="18"/>
</g>
<!-- o1&#45;&gt;o3 -->
<g id="edge1" class="edge"><title>o1&#45;&gt;o3</title>
<path fill="none" stroke="black" d="M128,-503.697C128,-495.983 128,-486.712 128,-478.112"/>
<polygon fill="black" stroke="black" points="131.5,-478.104 128,-468.104 124.5,-478.104 131.5,-478.104"/>
</g>
<!-- o2 -->
<g id="node3" class="node"><title>o2</title>
<ellipse fill="none" stroke="black" cx="51" cy="-378" rx="18" ry="18"/>
</g>
<!-- o3&#45;&gt;o2 -->
<g id="edge3" class="edge"><title>o3&#45;&gt;o2</title>
<path fill="none" stroke="black" d="M114.938,-437.125C103.03,-426.3 85.2451,-410.132 71.4534,-397.594"/>
<polygon fill="black" stroke="black" points="73.6229,-394.836 63.8691,-390.699 68.9142,-400.016 73.6229,-394.836"/>
</g>
<!-- o7 -->
<g id="node5" class="node"><title>o7</title>
<ellipse fill="none" stroke="black" cx="128" cy="-378" rx="18" ry="18"/>
</g>
<!-- o3&#45;&gt;o7 -->
<g id="edge4" class="edge"><title>o3&#45;&gt;o7</title>
<path fill="none" stroke="black" d="M128,-431.697C128,-423.983 128,-414.712 128,-406.112"/>
<polygon fill="black" stroke="black" points="131.5,-406.104 128,-396.104 124.5,-406.104 131.5,-406.104"/>
</g>
<!-- o13 -->
<g id="node4" class="node"><title>o13</title>
</g>
<!-- o2&#45;&gt;o13 -->
<g id="edge2" class="edge"><title>o2&#45;&gt;o13</title>
<path fill="none" stroke="black" stroke-dasharray="5,2" d="M45.4336,-360.765C42.6269,-352.578 39.1536,-342.448 35.9812,-333.195"/>
<polygon fill="black" stroke="black" points="39.257,-331.958 32.7029,-323.633 32.6354,-334.228 39.257,-331.958"/>
</g>
<!-- o6 -->
<g id="node8" class="node"><title>o6</title>
<ellipse fill="none" stroke="black" cx="114" cy="-162" rx="18" ry="18"/>
</g>
<!-- o7&#45;&gt;o6 -->
<g id="edge8" class="edge"><title>o7&#45;&gt;o6</title>
<path fill="none" stroke="black" d="M118.199,-362.431C111.912,-352.176 104.326,-337.857 101,-324 89.7963,-277.326 95.2411,-263.653 101,-216 102.067,-207.173 104.098,-197.696 106.244,-189.231"/>
<polygon fill="black" stroke="black" points="109.638,-190.086 108.861,-179.519 102.879,-188.264 109.638,-190.086"/>
</g>
<!-- o8 -->
<g id="node9" class="node"><title>o8</title>
<ellipse fill="none" stroke="black" cx="182" cy="-306" rx="18" ry="18"/>
</g>
<!-- o7&#45;&gt;o8 -->
<g id="edge9" class="edge"><title>o7&#45;&gt;o8</title>
<path fill="none" stroke="black" d="M138.669,-363.17C146.213,-353.391 156.481,-340.08 165.129,-328.87"/>
<polygon fill="black" stroke="black" points="168.017,-330.857 171.354,-320.801 162.474,-326.581 168.017,-330.857"/>
</g>
<!-- o11 -->
<g id="node10" class="node"><title>o11</title>
<ellipse fill="none" stroke="black" cx="128" cy="-306" rx="18" ry="18"/>
</g>
<!-- o7&#45;&gt;o11 -->
<g id="edge10" class="edge"><title>o7&#45;&gt;o11</title>
<path fill="none" stroke="black" d="M128,-359.697C128,-351.983 128,-342.712 128,-334.112"/>
<polygon fill="black" stroke="black" points="131.5,-334.104 128,-324.104 124.5,-334.104 131.5,-334.104"/>
</g>
<!-- o4 -->
<g id="node6" class="node"><title>o4</title>
<ellipse fill="none" stroke="black" cx="191" cy="-18" rx="18" ry="18"/>
</g>
<!-- o4&#45;&gt;o3 -->
<g id="edge5" class="edge"><title>o4&#45;&gt;o3</title>
<path fill="none" stroke="black" d="M198.712,-34.7548C210.588,-60.5117 232,-113.529 232,-161 232,-307 232,-307 232,-307 232,-361.746 181.065,-409.412 150.486,-433.096"/>
<polygon fill="black" stroke="black" points="148.353,-430.32 142.461,-439.126 152.558,-435.917 148.353,-430.32"/>
</g>
<!-- o5 -->
<g id="node7" class="node"><title>o5</title>
<ellipse fill="none" stroke="black" cx="150" cy="-90" rx="18" ry="18"/>
</g>
<!-- o5&#45;&gt;o4 -->
<g id="edge6" class="edge"><title>o5&#45;&gt;o4</title>
<path fill="none" stroke="black" d="M158.695,-74.1548C164.076,-64.967 171.104,-52.9682 177.23,-42.5092"/>
<polygon fill="black" stroke="black" points="180.284,-44.2216 182.317,-33.8238 174.243,-40.6837 180.284,-44.2216"/>
</g>
<!-- o6&#45;&gt;o5 -->
<g id="edge7" class="edge"><title>o6&#45;&gt;o5</title>
<path fill="none" stroke="black" d="M121.99,-145.465C126.511,-136.674 132.267,-125.481 137.384,-115.531"/>
<polygon fill="black" stroke="black" points="140.572,-116.985 142.033,-106.492 134.347,-113.784 140.572,-116.985"/>
</g>
<!-- o9 -->
<g id="node11" class="node"><title>o9</title>
<ellipse fill="none" stroke="black" cx="182" cy="-234" rx="18" ry="18"/>
</g>
<!-- o8&#45;&gt;o9 -->
<g id="edge11" class="edge"><title>o8&#45;&gt;o9</title>
<path fill="none" stroke="black" d="M182,-287.697C182,-279.983 182,-270.712 182,-262.112"/>
<polygon fill="black" stroke="black" points="185.5,-262.104 182,-252.104 178.5,-262.104 185.5,-262.104"/>
</g>
<!-- o11&#45;&gt;o9 -->
<g id="edge14" class="edge"><title>o11&#45;&gt;o9</title>
<path fill="none" stroke="black" d="M138.669,-291.17C146.213,-281.391 156.481,-268.08 165.129,-256.87"/>
<polygon fill="black" stroke="black" points="168.017,-258.857 171.354,-248.801 162.474,-254.581 168.017,-258.857"/>
</g>
<!-- o10 -->
<g id="node13" class="node"><title>o10</title>
<ellipse fill="none" stroke="black" cx="128" cy="-234" rx="18" ry="18"/>
</g>
<!-- o11&#45;&gt;o10 -->
<g id="edge15" class="edge"><title>o11&#45;&gt;o10</title>
<path fill="none" stroke="black" d="M128,-287.697C128,-279.983 128,-270.712 128,-262.112"/>
<polygon fill="black" stroke="black" points="131.5,-262.104 128,-252.104 124.5,-262.104 131.5,-262.104"/>
</g>
<!-- o14 -->
<g id="node12" class="node"><title>o14</title>
</g>
<!-- o9&#45;&gt;o14 -->
<g id="edge12" class="edge"><title>o9&#45;&gt;o14</title>
<path fill="none" stroke="black" stroke-dasharray="5,2" d="M180.764,-215.697C180.213,-207.983 179.551,-198.712 178.937,-190.112"/>
<polygon fill="black" stroke="black" points="182.425,-189.83 178.222,-180.104 175.443,-190.328 182.425,-189.83"/>
</g>
<!-- o10&#45;&gt;o6 -->
<g id="edge13" class="edge"><title>o10&#45;&gt;o6</title>
<path fill="none" stroke="black" d="M124.611,-216.055C123.029,-208.145 121.108,-198.54 119.338,-189.688"/>
<polygon fill="black" stroke="black" points="122.751,-188.908 117.358,-179.789 115.887,-190.281 122.751,-188.908"/>
</g>
<!-- o12 -->
<g id="node14" class="node"><title>o12</title>
</g>
<!-- o12&#45;&gt;o1 -->
<g id="edge16" class="edge"><title>o12&#45;&gt;o1</title>
<path fill="none" stroke="black" stroke-dasharray="5,2" d="M128,-575.697C128,-567.983 128,-558.712 128,-550.112"/>
<polygon fill="black" stroke="black" points="131.5,-550.104 128,-540.104 124.5,-550.104 131.5,-550.104"/>
</g>
</g>
</svg>
