<?xml version="1.0" encoding="UTF-8" standalone="no"?>
<!DOCTYPE svg PUBLIC "-//W3C//DTD SVG 1.1//EN"
 "http://www.w3.org/Graphics/SVG/1.1/DTD/svg11.dtd">
<!-- Generated by graphviz version 2.36.0 (20140111.2315)
 -->
<!-- Title: G Pages: 1 -->
<svg width="400pt" height="426pt"
 viewBox="0.00 0.00 400.07 425.81" xmlns="http://www.w3.org/2000/svg" xmlns:xlink="http://www.w3.org/1999/xlink">
<g id="graph0" class="graph" transform="scale(1 1) rotate(0) translate(4 421.806)">
<title>G</title>
<polygon fill="white" stroke="none" points="-4,4 -4,-421.806 396.068,-421.806 396.068,4 -4,4"/>
<!-- o1 -->
<g id="node1" class="node"><title>o1</title>
<ellipse fill="none" stroke="black" cx="100.167" cy="-229.894" rx="18" ry="18"/>
</g>
<!-- o3 -->
<g id="node3" class="node"><title>o3</title>
<ellipse fill="none" stroke="black" cx="173.922" cy="-270.096" rx="18" ry="18"/>
</g>
<!-- o1&#45;&gt;o3 -->
<g id="edge1" class="edge"><title>o1&#45;&gt;o3</title>
<path fill="none" stroke="black" d="M116.17,-238.617C125.739,-243.833 138.103,-250.572 148.934,-256.476"/>
<polygon fill="black" stroke="black" points="147.494,-259.677 157.949,-261.39 150.844,-253.531 147.494,-259.677"/>
</g>
<!-- o2 -->
<g id="node2" class="node"><title>o2</title>
<ellipse fill="none" stroke="black" cx="123.086" cy="-335.481" rx="18" ry="18"/>
</g>
<!-- o13 -->
<g id="node13" class="node"><title>o13</title>
</g>
<!-- o2&#45;&gt;o13 -->
<g id="edge15" class="edge"><title>o2&#45;&gt;o13</title>
<path fill="none" stroke="black" stroke-dasharray="5,2" d="M112.796,-350.725C107.934,-357.928 102.004,-366.713 96.5114,-374.85"/>
<polygon fill="black" stroke="black" points="93.4887,-373.072 90.7948,-383.319 99.2906,-376.989 93.4887,-373.072"/>
</g>
<!-- o3&#45;&gt;o2 -->
<g id="edge2" class="edge"><title>o3&#45;&gt;o2</title>
<path fill="none" stroke="black" d="M162.64,-284.607C156.19,-292.903 147.959,-303.489 140.678,-312.854"/>
<polygon fill="black" stroke="black" points="137.711,-310.968 134.336,-321.011 143.237,-315.264 137.711,-310.968"/>
</g>
<!-- o7 -->
<g id="node7" class="node"><title>o7</title>
<ellipse fill="none" stroke="black" cx="242.916" cy="-217.755" rx="18" ry="18"/>
</g>
<!-- o3&#45;&gt;o7 -->
<g id="edge3" class="edge"><title>o3&#45;&gt;o7</title>
<path fill="none" stroke="black" d="M188.554,-258.996C197.701,-252.056 209.675,-242.972 220.057,-235.097"/>
<polygon fill="black" stroke="black" points="222.454,-237.671 228.305,-228.839 218.223,-232.094 222.454,-237.671"/>
</g>
<!-- o4 -->
<g id="node4" class="node"><title>o4</title>
<ellipse fill="none" stroke="black" cx="222.309" cy="-339.132" rx="18" ry="18"/>
</g>
<!-- o4&#45;&gt;o3 -->
<g id="edge4" class="edge"><title>o4&#45;&gt;o3</title>
<path fill="none" stroke="black" d="M211.81,-324.152C205.532,-315.196 197.421,-303.623 190.315,-293.485"/>
<polygon fill="black" stroke="black" points="193.006,-291.227 184.401,-285.047 187.274,-295.244 193.006,-291.227"/>
</g>
<!-- o5 -->
<g id="node5" class="node"><title>o5</title>
<ellipse fill="none" stroke="black" cx="300.06" cy="-344.64" rx="18" ry="18"/>
</g>
<!-- o5&#45;&gt;o4 -->
<g id="edge5" class="edge"><title>o5&#45;&gt;o4</title>
<path fill="none" stroke="black" d="M282.027,-343.363C272.673,-342.7 261.035,-341.876 250.523,-341.131"/>
<polygon fill="black" stroke="black" points="250.736,-337.637 240.514,-340.422 250.241,-344.62 250.736,-337.637"/>
</g>
<!-- o6 -->
<g id="node6" class="node"><title>o6</title>
<ellipse fill="none" stroke="black" cx="313.654" cy="-269.004" rx="18" ry="18"/>
</g>
<!-- o6&#45;&gt;o5 -->
<g id="edge6" class="edge"><title>o6&#45;&gt;o5</title>
<path fill="none" stroke="black" d="M310.432,-286.929C308.824,-295.878 306.842,-306.903 305.043,-316.912"/>
<polygon fill="black" stroke="black" points="301.582,-316.383 303.258,-326.844 308.472,-317.621 301.582,-316.383"/>
</g>
<!-- o7&#45;&gt;o6 -->
<g id="edge7" class="edge"><title>o7&#45;&gt;o6</title>
<path fill="none" stroke="black" d="M257.573,-228.374C267.153,-235.314 279.862,-244.522 290.759,-252.417"/>
<polygon fill="black" stroke="black" points="288.864,-255.366 299.016,-258.399 292.971,-249.698 288.864,-255.366"/>
</g>
<!-- o8 -->
<g id="node8" class="node"><title>o8</title>
<ellipse fill="none" stroke="black" cx="232.625" cy="-124.873" rx="18" ry="18"/>
</g>
<!-- o7&#45;&gt;o8 -->
<g id="edge8" class="edge"><title>o7&#45;&gt;o8</title>
<path fill="none" stroke="black" d="M240.932,-199.846C239.461,-186.568 237.427,-168.21 235.74,-152.984"/>
<polygon fill="black" stroke="black" points="239.218,-152.597 234.638,-143.043 232.261,-153.368 239.218,-152.597"/>
</g>
<!-- o11 -->
<g id="node11" class="node"><title>o11</title>
<ellipse fill="none" stroke="black" cx="310.441" cy="-168.243" rx="18" ry="18"/>
</g>
<!-- o7&#45;&gt;o11 -->
<g id="edge9" class="edge"><title>o7&#45;&gt;o11</title>
<path fill="none" stroke="black" d="M257.568,-207.011C266.328,-200.588 277.648,-192.289 287.564,-185.017"/>
<polygon fill="black" stroke="black" points="289.823,-187.701 295.818,-178.966 285.684,-182.056 289.823,-187.701"/>
</g>
<!-- o9 -->
<g id="node9" class="node"><title>o9</title>
<ellipse fill="none" stroke="black" cx="302.484" cy="-88.5922" rx="18" ry="18"/>
</g>
<!-- o8&#45;&gt;o9 -->
<g id="edge10" class="edge"><title>o8&#45;&gt;o9</title>
<path fill="none" stroke="black" d="M248.828,-116.458C257.292,-112.062 267.84,-106.585 277.337,-101.652"/>
<polygon fill="black" stroke="black" points="279.108,-104.676 286.369,-96.9613 275.882,-98.4642 279.108,-104.676"/>
</g>
<!-- o14 -->
<g id="node14" class="node"><title>o14</title>
</g>
<!-- o9&#45;&gt;o14 -->
<g id="edge16" class="edge"><title>o9&#45;&gt;o14</title>
<path fill="none" stroke="black" stroke-dasharray="5,2" d="M309.277,-71.8628C312.535,-63.8385 316.52,-54.0243 320.192,-44.982"/>
<polygon fill="black" stroke="black" points="323.484,-46.1765 324.003,-35.5944 316.998,-43.543 323.484,-46.1765"/>
</g>
<!-- o10 -->
<g id="node10" class="node"><title>o10</title>
<ellipse fill="none" stroke="black" cx="374.068" cy="-218.295" rx="18" ry="18"/>
</g>
<!-- o10&#45;&gt;o6 -->
<g id="edge11" class="edge"><title>o10&#45;&gt;o6</title>
<path fill="none" stroke="black" d="M360.056,-230.056C352.736,-236.2 343.614,-243.856 335.401,-250.751"/>
<polygon fill="black" stroke="black" points="332.999,-248.197 327.59,-257.307 337.499,-253.558 332.999,-248.197"/>
</g>
<!-- o11&#45;&gt;o9 -->
<g id="edge13" class="edge"><title>o11&#45;&gt;o9</title>
<path fill="none" stroke="black" d="M308.635,-150.169C307.649,-140.291 306.405,-127.837 305.294,-116.718"/>
<polygon fill="black" stroke="black" points="308.759,-116.197 304.283,-106.595 301.794,-116.893 308.759,-116.197"/>
</g>
<!-- o11&#45;&gt;o10 -->
<g id="edge12" class="edge"><title>o11&#45;&gt;o10</title>
<path fill="none" stroke="black" d="M324.879,-179.601C332.77,-185.808 342.719,-193.634 351.601,-200.621"/>
<polygon fill="black" stroke="black" points="349.664,-203.55 359.687,-206.982 353.992,-198.049 349.664,-203.55"/>
</g>
<!-- o12 -->
<g id="node12" class="node"><title>o12</title>
</g>
<!-- o12&#45;&gt;o1 -->
<g id="edge14" class="edge"><title>o12&#45;&gt;o1</title>
<path fill="none" stroke="black" stroke-dasharray="5,2" d="M50.5531,-210.966C57.8729,-213.758 65.9933,-216.856 73.509,-219.724"/>
<polygon fill="black" stroke="black" points="72.3319,-223.021 82.9227,-223.315 74.8271,-216.481 72.3319,-223.021"/>
</g>
</g>
</svg>
