<?xml version="1.0" encoding="UTF-8" standalone="no"?>
<!DOCTYPE svg PUBLIC "-//W3C//DTD SVG 1.1//EN"
 "http://www.w3.org/Graphics/SVG/1.1/DTD/svg11.dtd">
<!-- Generated by graphviz version 2.36.0 (20140111.2315)
 -->
<!-- Title: G Pages: 1 -->
<svg width="358pt" height="117pt"
 viewBox="0.00 0.00 358.40 117.00" xmlns="http://www.w3.org/2000/svg" xmlns:xlink="http://www.w3.org/1999/xlink">
<g id="graph0" class="graph" transform="scale(1 1) rotate(0) translate(4 113)">
<title>G</title>
<polygon fill="white" stroke="none" points="-4,4 -4,-113 354.4,-113 354.4,4 -4,4"/>
<!-- Red -->
<g id="node1" class="node"><title>Red</title>
<path fill="none" stroke="black" d="M107.5,-72.5C107.5,-72.5 187.5,-72.5 187.5,-72.5 193.5,-72.5 199.5,-78.5 199.5,-84.5 199.5,-84.5 199.5,-96.5 199.5,-96.5 199.5,-102.5 193.5,-108.5 187.5,-108.5 187.5,-108.5 107.5,-108.5 107.5,-108.5 101.5,-108.5 95.5,-102.5 95.5,-96.5 95.5,-96.5 95.5,-84.5 95.5,-84.5 95.5,-78.5 101.5,-72.5 107.5,-72.5"/>
<text text-anchor="start" x="103.5" y="-93.7" font-family="Times,serif" font-size="11.00">Write a </text>
<text text-anchor="start" x="149.5" y="-93.7" font-family="Times,serif" font-weight="bold" font-size="11.00">failing</text>
<text text-anchor="start" x="134.5" y="-82.7" font-family="Times,serif" font-size="11.00"> test</text>
</g>
<!-- Green -->
<g id="node2" class="node"><title>Green</title>
<path fill="none" stroke="black" d="M273.4,-72.5C273.4,-72.5 338.4,-72.5 338.4,-72.5 344.4,-72.5 350.4,-78.5 350.4,-84.5 350.4,-84.5 350.4,-96.5 350.4,-96.5 350.4,-102.5 344.4,-108.5 338.4,-108.5 338.4,-108.5 273.4,-108.5 273.4,-108.5 267.4,-108.5 261.4,-102.5 261.4,-96.5 261.4,-96.5 261.4,-84.5 261.4,-84.5 261.4,-78.5 267.4,-72.5 273.4,-72.5"/>
<text text-anchor="middle" x="305.9" y="-87.7" font-family="Times,serif" font-size="11.00">Make it pass</text>
</g>
<!-- Red&#45;&gt;Green -->
<g id="edge2" class="edge"><title>Red&#45;&gt;Green</title>
<path fill="none" stroke="black" d="M199.805,-90.5C216.297,-90.5 234.555,-90.5 251.209,-90.5"/>
<polygon fill="black" stroke="black" points="251.341,-94.0001 261.341,-90.5 251.341,-87.0001 251.341,-94.0001"/>
</g>
<!-- Refactor -->
<g id="node3" class="node"><title>Refactor</title>
<path fill="none" stroke="black" d="M199,-0.5C199,-0.5 240,-0.5 240,-0.5 246,-0.5 252,-6.5 252,-12.5 252,-12.5 252,-24.5 252,-24.5 252,-30.5 246,-36.5 240,-36.5 240,-36.5 199,-36.5 199,-36.5 193,-36.5 187,-30.5 187,-24.5 187,-24.5 187,-12.5 187,-12.5 187,-6.5 193,-0.5 199,-0.5"/>
<text text-anchor="middle" x="219.5" y="-15.7" font-family="Times,serif" font-size="11.00">Refactor</text>
</g>
<!-- Green&#45;&gt;Refactor -->
<g id="edge3" class="edge"><title>Green&#45;&gt;Refactor</title>
<path fill="none" stroke="black" d="M284.098,-72.3314C273.456,-63.4632 260.496,-52.6637 248.986,-43.0718"/>
<polygon fill="black" stroke="black" points="251.218,-40.3759 241.295,-36.6628 246.737,-45.7535 251.218,-40.3759"/>
</g>
<!-- Refactor&#45;&gt;Red -->
<g id="edge4" class="edge"><title>Refactor&#45;&gt;Red</title>
<path fill="none" stroke="black" d="M201.331,-36.6686C192.785,-45.2152 182.444,-55.5557 173.12,-64.8802"/>
<polygon fill="black" stroke="black" points="170.509,-62.5408 165.913,-72.0867 175.459,-67.4905 170.509,-62.5408"/>
</g>
<!-- Begin -->
<g id="node4" class="node"><title>Begin</title>
</g>
<!-- Begin&#45;&gt;Red -->
<g id="edge1" class="edge"><title>Begin&#45;&gt;Red</title>
<path fill="none" stroke="black" d="M7.05957,-90.5C18.0803,-90.5 52.8358,-90.5 85.0118,-90.5"/>
<polygon fill="black" stroke="black" points="85.3346,-94.0001 95.3346,-90.5 85.3345,-87.0001 85.3346,-94.0001"/>
</g>
</g>
</svg>
