<?xml version="1.0" encoding="UTF-8" standalone="no"?>
<!DOCTYPE svg PUBLIC "-//W3C//DTD SVG 1.1//EN"
 "http://www.w3.org/Graphics/SVG/1.1/DTD/svg11.dtd">
<!-- Generated by graphviz version 2.36.0 (20140111.2315)
 -->
<!-- Title: G Pages: 1 -->
<svg width="345pt" height="117pt"
 viewBox="0.00 0.00 344.90 117.00" xmlns="http://www.w3.org/2000/svg" xmlns:xlink="http://www.w3.org/1999/xlink">
<g id="graph0" class="graph" transform="scale(1 1) rotate(0) translate(4 113)">
<title>G</title>
<polygon fill="white" stroke="none" points="-4,4 -4,-113 340.9,-113 340.9,4 -4,4"/>
<!-- Red -->
<g id="node1" class="node"><title>Red</title>
<path fill="none" stroke="black" d="M61,-72.5C61,-72.5 234,-72.5 234,-72.5 240,-72.5 246,-78.5 246,-84.5 246,-84.5 246,-96.5 246,-96.5 246,-102.5 240,-108.5 234,-108.5 234,-108.5 61,-108.5 61,-108.5 55,-108.5 49,-102.5 49,-96.5 49,-96.5 49,-84.5 49,-84.5 49,-78.5 55,-72.5 61,-72.5"/>
<text text-anchor="start" x="57" y="-88.7" font-family="Times,serif" font-size="11.00">Write an </text>
<text text-anchor="start" x="109" y="-88.7" font-family="Times,serif" font-weight="bold" font-size="11.00">unfulfilled</text>
<text text-anchor="start" x="175" y="-88.7" font-family="Times,serif" font-size="11.00"> Statement</text>
</g>
<!-- Green -->
<g id="node2" class="node"><title>Green</title>
<path fill="none" stroke="black" d="M286.9,-72.5C286.9,-72.5 324.9,-72.5 324.9,-72.5 330.9,-72.5 336.9,-78.5 336.9,-84.5 336.9,-84.5 336.9,-96.5 336.9,-96.5 336.9,-102.5 330.9,-108.5 324.9,-108.5 324.9,-108.5 286.9,-108.5 286.9,-108.5 280.9,-108.5 274.9,-102.5 274.9,-96.5 274.9,-96.5 274.9,-84.5 274.9,-84.5 274.9,-78.5 280.9,-72.5 286.9,-72.5"/>
<text text-anchor="middle" x="305.9" y="-87.7" font-family="Times,serif" font-size="11.00">Fulfill it</text>
</g>
<!-- Red&#45;&gt;Green -->
<g id="edge2" class="edge"><title>Red&#45;&gt;Green</title>
<path fill="none" stroke="black" d="M246.016,-90.5C252.464,-90.5 258.731,-90.5 264.63,-90.5"/>
<polygon fill="black" stroke="black" points="264.812,-94.0001 274.812,-90.5 264.812,-87.0001 264.812,-94.0001"/>
</g>
<!-- Refactor -->
<g id="node3" class="node"><title>Refactor</title>
<path fill="none" stroke="black" d="M199,-0.5C199,-0.5 240,-0.5 240,-0.5 246,-0.5 252,-6.5 252,-12.5 252,-12.5 252,-24.5 252,-24.5 252,-30.5 246,-36.5 240,-36.5 240,-36.5 199,-36.5 199,-36.5 193,-36.5 187,-30.5 187,-24.5 187,-24.5 187,-12.5 187,-12.5 187,-6.5 193,-0.5 199,-0.5"/>
<text text-anchor="middle" x="219.5" y="-15.7" font-family="Times,serif" font-size="11.00">Refactor</text>
</g>
<!-- Green&#45;&gt;Refactor -->
<g id="edge3" class="edge"><title>Green&#45;&gt;Refactor</title>
<path fill="none" stroke="black" d="M284.098,-72.3314C273.456,-63.4632 260.496,-52.6637 248.986,-43.0718"/>
<polygon fill="black" stroke="black" points="251.218,-40.3759 241.295,-36.6628 246.737,-45.7535 251.218,-40.3759"/>
</g>
<!-- Refactor&#45;&gt;Red -->
<g id="edge4" class="edge"><title>Refactor&#45;&gt;Red</title>
<path fill="none" stroke="black" d="M201.331,-36.6686C192.785,-45.2152 182.444,-55.5557 173.12,-64.8802"/>
<polygon fill="black" stroke="black" points="170.509,-62.5408 165.913,-72.0867 175.459,-67.4905 170.509,-62.5408"/>
</g>
<!-- Begin -->
<g id="node4" class="node"><title>Begin</title>
</g>
<!-- Begin&#45;&gt;Red -->
<g id="edge1" class="edge"><title>Begin&#45;&gt;Red</title>
<path fill="none" stroke="black" d="M7.05957,-90.5C12.6195,-90.5 24.2204,-90.5 38.4833,-90.5"/>
<polygon fill="black" stroke="black" points="38.7415,-94.0001 48.7414,-90.5 38.7414,-87.0001 38.7415,-94.0001"/>
</g>
</g>
</svg>
