<?xml version="1.0" encoding="UTF-8" standalone="no"?>
<!DOCTYPE svg PUBLIC "-//W3C//DTD SVG 1.1//EN"
 "http://www.w3.org/Graphics/SVG/1.1/DTD/svg11.dtd">
<!-- Generated by graphviz version 2.36.0 (20140111.2315)
 -->
<!-- Title: G Pages: 1 -->
<svg width="358pt" height="117pt"
 viewBox="0.00 0.00 358.40 117.00" xmlns="http://www.w3.org/2000/svg" xmlns:xlink="http://www.w3.org/1999/xlink">
<g id="graph0" class="graph" transform="scale(1 1) rotate(0) translate(4 113)">
<title>G</title>
<polygon fill="white" stroke="none" points="-4,4 -4,-113 354.4,-113 354.4,4 -4,4"/>
<!-- Red -->
<g id="node1" class="node"><title>Red</title>
<path fill="none" stroke="black" d="M94.5,-72.5C94.5,-72.5 200.5,-72.5 200.5,-72.5 206.5,-72.5 212.5,-78.5 212.5,-84.5 212.5,-84.5 212.5,-96.5 212.5,-96.5 212.5,-102.5 206.5,-108.5 200.5,-108.5 200.5,-108.5 94.5,-108.5 94.5,-108.5 88.5,-108.5 82.5,-102.5 82.5,-96.5 82.5,-96.5 82.5,-84.5 82.5,-84.5 82.5,-78.5 88.5,-72.5 94.5,-72.5"/>
<text text-anchor="start" x="90.5" y="-88.7" font-family="Times,serif" font-size="11.00">Write a </text>
<text text-anchor="start" x="136.5" y="-88.7" font-family="Times,serif" font-weight="bold" font-size="11.00">failing</text>
<text text-anchor="start" x="178.5" y="-88.7" font-family="Times,serif" font-size="11.00"> test</text>
</g>
<!-- Green -->
<g id="node2" class="node"><title>Green</title>
<path fill="none" stroke="black" d="M273.4,-72.5C273.4,-72.5 338.4,-72.5 338.4,-72.5 344.4,-72.5 350.4,-78.5 350.4,-84.5 350.4,-84.5 350.4,-96.5 350.4,-96.5 350.4,-102.5 344.4,-108.5 338.4,-108.5 338.4,-108.5 273.4,-108.5 273.4,-108.5 267.4,-108.5 261.4,-102.5 261.4,-96.5 261.4,-96.5 261.4,-84.5 261.4,-84.5 261.4,-78.5 267.4,-72.5 273.4,-72.5"/>
<text text-anchor="middle" x="305.9" y="-87.7" font-family="Times,serif" font-size="11.00">Make it pass</text>
</g>
<!-- Red&#45;&gt;Green -->
<g id="edge2" class="edge"><title>Red&#45;&gt;Green</title>
<path fill="none" stroke="black" d="M212.842,-90.5C225.492,-90.5 238.629,-90.5 250.907,-90.5"/>
<polygon fill="black" stroke="black" points="250.989,-94.0001 260.989,-90.5 250.989,-87.0001 250.989,-94.0001"/>
</g>
<!-- Refactor -->
<g id="node3" class="node"><title>Refactor</title>
<path fill="none" stroke="black" d="M199,-0.5C199,-0.5 240,-0.5 240,-0.5 246,-0.5 252,-6.5 252,-12.5 252,-12.5 252,-24.5 252,-24.5 252,-30.5 246,-36.5 240,-36.5 240,-36.5 199,-36.5 199,-36.5 193,-36.5 187,-30.5 187,-24.5 187,-24.5 187,-12.5 187,-12.5 187,-6.5 193,-0.5 199,-0.5"/>
<text text-anchor="middle" x="219.5" y="-15.7" font-family="Times,serif" font-size="11.00">Refactor</text>
</g>
<!-- Green&#45;&gt;Refactor -->
<g id="edge3" class="edge"><title>Green&#45;&gt;Refactor</title>
<path fill="none" stroke="black" d="M284.098,-72.3314C273.456,-63.4632 260.496,-52.6637 248.986,-43.0718"/>
<polygon fill="black" stroke="black" points="251.218,-40.3759 241.295,-36.6628 246.737,-45.7535 251.218,-40.3759"/>
</g>
<!-- Refactor&#45;&gt;Red -->
<g id="edge4" class="edge"><title>Refactor&#45;&gt;Red</title>
<path fill="none" stroke="black" d="M201.331,-36.6686C192.785,-45.2152 182.444,-55.5557 173.12,-64.8802"/>
<polygon fill="black" stroke="black" points="170.509,-62.5408 165.913,-72.0867 175.459,-67.4905 170.509,-62.5408"/>
</g>
<!-- Begin -->
<g id="node4" class="node"><title>Begin</title>
</g>
<!-- Begin&#45;&gt;Red -->
<g id="edge1" class="edge"><title>Begin&#45;&gt;Red</title>
<path fill="none" stroke="black" d="M7.05957,-90.5C16.5871,-90.5 43.8535,-90.5 71.8567,-90.5"/>
<polygon fill="black" stroke="black" points="72.1756,-94.0001 82.1755,-90.5 72.1755,-87.0001 72.1756,-94.0001"/>
</g>
</g>
</svg>
