<?xml version="1.0" encoding="UTF-8" standalone="no"?>
<!DOCTYPE svg PUBLIC "-//W3C//DTD SVG 1.1//EN"
 "http://www.w3.org/Graphics/SVG/1.1/DTD/svg11.dtd">
<!-- Generated by graphviz version 2.36.0 (20140111.2315)
 -->
<!-- Title: G Pages: 1 -->
<svg width="659pt" height="185pt"
 viewBox="0.00 0.00 658.91 185.08" xmlns="http://www.w3.org/2000/svg" xmlns:xlink="http://www.w3.org/1999/xlink">
<g id="graph0" class="graph" transform="scale(1 1) rotate(0) translate(4 181.083)">
<title>G</title>
<polygon fill="white" stroke="none" points="-4,4 -4,-181.083 654.907,-181.083 654.907,4 -4,4"/>
<!-- Sender -->
<g id="node1" class="node"><title>Sender</title>
<ellipse fill="none" stroke="black" cx="31.1991" cy="-129.563" rx="31.3996" ry="31.3996"/>
<text text-anchor="middle" x="31.1991" y="-127.063" font-family="Times,serif" font-size="10.00">Sender</text>
</g>
<!-- square -->
<g id="node3" class="node"><title>square</title>
<polygon fill="none" stroke="black" points="290.629,-159.462 220.629,-129.462 290.629,-99.4621 360.629,-129.462 290.629,-159.462"/>
<polyline fill="none" stroke="black" points="231.659,-134.189 231.659,-124.735 "/>
<polyline fill="none" stroke="black" points="279.599,-104.189 301.659,-104.189 "/>
<polyline fill="none" stroke="black" points="349.599,-124.735 349.599,-134.189 "/>
<polyline fill="none" stroke="black" points="301.659,-154.735 279.599,-154.735 "/>
<text text-anchor="middle" x="290.629" y="-132.462" font-family="Times,serif" font-size="10.00">Recipient</text>
<text text-anchor="middle" x="290.629" y="-121.462" font-family="Times,serif" font-size="10.00">(Interface)</text>
</g>
<!-- Sender&#45;&gt;square -->
<g id="edge1" class="edge"><title>Sender&#45;&gt;square</title>
<path fill="none" stroke="black" d="M62.4924,-129.551C98.9296,-129.536 160.502,-129.513 210.503,-129.493"/>
<polygon fill="black" stroke="black" points="210.661,-132.993 220.66,-129.489 210.658,-125.993 210.661,-132.993"/>
<text text-anchor="middle" x="132.992" y="-132.551" font-family="Times,serif" font-size="10.00">Recipient::DoSomething()...</text>
</g>
<!-- Recipient -->
<g id="node2" class="node"><title>Recipient</title>
<ellipse fill="none" stroke="black" cx="604.945" cy="-131.121" rx="45.9239" ry="45.9239"/>
<text text-anchor="middle" x="604.945" y="-134.121" font-family="Times,serif" font-size="10.00">Concrete</text>
<text text-anchor="middle" x="604.945" y="-123.121" font-family="Times,serif" font-size="10.00">Recipient</text>
</g>
<!-- square&#45;&gt;Recipient -->
<g id="edge2" class="edge"><title>square&#45;&gt;Recipient</title>
<path fill="none" stroke="black" d="M359.996,-129.828C416.605,-130.127 495.589,-130.544 548.407,-130.823"/>
<polygon fill="black" stroke="black" points="548.589,-134.324 558.607,-130.877 548.626,-127.324 548.589,-134.324"/>
<text text-anchor="middle" x="453.496" y="-132.828" font-family="Times,serif" font-size="10.00">...ConcreteRecipient::DoSomething()</text>
</g>
<!-- Alarm -->
<g id="node4" class="node"><title>Alarm</title>
<ellipse fill="none" stroke="black" cx="31.1991" cy="-32.6995" rx="27.8353" ry="27.8353"/>
<text text-anchor="middle" x="31.1991" y="-30.1995" font-family="Times,serif" font-size="10.00">Alarm</text>
</g>
<!-- Lift -->
<g id="node6" class="node"><title>Lift</title>
<polygon fill="none" stroke="black" points="290.745,-62.7366 220.745,-32.7366 290.745,-2.73661 360.745,-32.7366 290.745,-62.7366"/>
<polyline fill="none" stroke="black" points="231.775,-37.4636 231.775,-28.0096 "/>
<polyline fill="none" stroke="black" points="279.715,-7.46365 301.775,-7.46365 "/>
<polyline fill="none" stroke="black" points="349.715,-28.0096 349.715,-37.4636 "/>
<polyline fill="none" stroke="black" points="301.775,-58.0096 279.715,-58.0096 "/>
<text text-anchor="middle" x="290.745" y="-35.7366" font-family="Times,serif" font-size="10.00">Lift</text>
<text text-anchor="middle" x="290.745" y="-24.7366" font-family="Times,serif" font-size="10.00">(Interface)</text>
</g>
<!-- Alarm&#45;&gt;Lift -->
<g id="edge3" class="edge"><title>Alarm&#45;&gt;Lift</title>
<path fill="none" stroke="black" d="M58.9751,-32.7035C94.8355,-32.7086 158.766,-32.7178 210.413,-32.7251"/>
<polygon fill="black" stroke="black" points="210.566,-36.2251 220.567,-32.7266 210.567,-29.2251 210.566,-36.2251"/>
<text text-anchor="middle" x="123.975" y="-35.7035" font-family="Times,serif" font-size="10.00">Lift::GoToBottomFloor()...</text>
</g>
<!-- AutoLift -->
<g id="node5" class="node"><title>AutoLift</title>
<ellipse fill="none" stroke="black" cx="605.099" cy="-34.1425" rx="34.2855" ry="34.2855"/>
<text text-anchor="middle" x="605.099" y="-31.6425" font-family="Times,serif" font-size="10.00">AutoLift</text>
</g>
<!-- Lift&#45;&gt;AutoLift -->
<g id="edge4" class="edge"><title>Lift&#45;&gt;AutoLift</title>
<path fill="none" stroke="black" d="M360.12,-33.0469C421.185,-33.32 508.283,-33.7095 560.5,-33.943"/>
<polygon fill="black" stroke="black" points="560.759,-37.4441 570.775,-33.989 560.791,-30.4442 560.759,-37.4441"/>
<text text-anchor="middle" x="437.12" y="-36.0469" font-family="Times,serif" font-size="10.00">...AutoLift::GoToBottomFloor()</text>
</g>
</g>
</svg>
